<?xml version="1.0"?>
<svg xmlns="http://www.w3.org/2000/svg" xmlns:ad="http://ivoa.net/archdiag" xmlns:xlink="http://www.w3.org/1999/xlink" version="2.0" width="800" height="600"><defs><style type="text/css">
				rect.rec {
					fill: #bbe0e3;
					stroke: #0000ff;
				}

				rect.prerec {
					fill: #bbe0e3;
					stroke: none;
				}

				text.doclabel {
					fill: #0000ff;
					font-weight: bold;
					font-family: Liberation Sans Narrow;
					font-size: 11px;
					text-anchor:middle;
				}
			</style></defs><title>IVOA Architecture Diagram</title><desc>This image shows the architecture of the Virtual Observatory
		(cf. http://ivoa.net), together with the relevant standards.</desc><rect x="50" y="50" width="700" height="500" style="stroke:black;fill:white;"/><g style="stroke:black;stroke-dasharray:5,2"><line id="user_layer_sep" x1="50" y1="100" x2="750" y2="100"/><line id="resource_layer_sep" x1="50" y1="500" x2="750" y2="500"/></g><g style="stroke:black;stroke-dasharray:5,5;stroke-width:0.5"><line id="using_sep" x1="50" y1="150" x2="750" y2="150"/><line id="sharing_sep" x1="50" y1="450" x2="750" y2="450"/><line id="registry_sep" x1="150" y1="100" x2="150" y2="500"/><line id="dal_sep" x1="650" y1="100" x2="650" y2="500"/></g><g style="font-size:16px;font-family:Liberation Sans;    text-anchor:middle;text-align:center;font-weight:bold"><text x="250" y="25">Users</text><text x="550" y="25">Computers</text><text x="400" y="585">Providers</text><text x="25" y="300" transform="rotate(-90, 25, 300)">Registry</text><text x="775" y="300" transform="rotate(90, 775, 300)">Data Access Protocols</text></g><g style="font-size:20px;font-family:Liberation Sans;fill:#888888;    text-anchor:middle;text-align:center"><text x="400" y="72">User Layer</text><text x="400" y="132">Using</text><text x="400" y="543">Resource Layer</text><text x="400" y="480">Sharing</text><g transform="translate(400,285)"><text x="0" y="0" width="10em">VO</text><text x="0" y="30" width="10em">Core</text></g><text x="100" y="300" transform="rotate(-90, 100, 300)">Finding</text><text x="700" y="300" transform="rotate(90, 700, 300)">Getting</text></g><g style="font-size:16px;font-family:Liberation Sans;     text-anchor:middle;text-align:center;font-style:italic"><text x="400" y="96">Desktop Apps</text><g transform="translate(175,72)"><text x="0" y="0" width="10em">In-Browser</text><text x="0" y="20" width="10em">Apps</text></g><g transform="translate(625,72)"><text x="0" y="0" width="10em">User</text><text x="0" y="20" width="10em">Programs</text></g><text x="400" y="520">Data and Metadata Collection</text><text x="175" y="530">Storage</text><text x="625" y="530">Computation</text><text x="250" y="300">Semantics</text><g transform="translate(550,290)"><text x="0" y="0" width="10em">Data</text><text x="0" y="20" width="10em">Models</text></g><g transform="translate(400,210)"><text x="0" y="0" width="10em">VO Query</text><text x="0" y="20" width="10em">Languages</text></g><text x="400" y="375">Formats</text></g><g class="level2">
	<svg x="55" y="155"><rect width="90" height="18" x="0" y="0" class="rec"/><text class="doclabel" x="45" y="12.5">VOResource</text></svg>
	<svg x="55" y="180"><rect width="90" height="18" x="0" y="0" class="rec"/><text class="doclabel" x="45" y="12.5">RegTAP</text></svg>
	<svg x="55" y="205"><rect width="90" height="18" x="0" y="0" class="rec"/><text class="doclabel" x="45" y="12.5">RegistryInterface</text></svg>
	<svg x="55" y="230"><rect width="90" height="18" x="0" y="0" class="rec"/><text class="doclabel" x="45" y="12.5">Resource M.D.</text></svg>
	<svg x="55" y="255"><rect width="90" height="18" x="0" y="0" class="rec"/><text class="doclabel" x="45" y="12.5">TAPRegExt</text></svg>
	<svg x="55" y="350"><rect width="90" height="18" x="0" y="0" class="rec"/><text class="doclabel" x="45" y="12.5">VODataService</text></svg>
	<svg x="55" y="375"><rect width="90" height="18" x="0" y="0" class="rec"/><text class="doclabel" x="45" y="12.5">StandardsRegExt</text></svg>
	<svg x="55" y="400"><rect width="90" height="18" x="0" y="0" class="rec"/><text class="doclabel" x="45" y="12.5">SimpleDALR.E.</text></svg>
	<svg x="125" y="425"><rect width="90" height="18" x="0" y="0" class="rec"/><text class="doclabel" x="45" y="12.5">Identifiers</text></svg>
	<svg x="540" y="435"><rect width="90" height="18" x="0" y="0" class="rec"/><text class="doclabel" x="45" y="12.5">VOSI</text></svg>
</g></svg>
